<svg xmlns="http://www.w3.org/2000/svg" version="1.1" xmlns:xlink="http://www.w3.org/1999/xlink" xmlns:svgjs="http://svgjs.com/svgjs" width="1440" height="560" preserveAspectRatio="none" viewBox="0 0 1440 560"><g mask="url(&quot;#SvgjsMask1240&quot;)" fill="none"><rect width="1440" height="560" x="0" y="0" fill="url(#SvgjsLinearGradient1241)"></rect><path d="M324.46 567.93C497.17 558.26 627.72 245.72 936.56 245.34 1245.4 244.96 1390.7 400.9 1548.66 402.14" stroke="rgba(51, 56, 194, 0.58)" stroke-width="2"></path><path d="M942.65 625.13C1041.92 623.82 1114.32 515.99 1322.2 508.29 1530.08 500.59 1591.87 292.44 1701.75 284.29" stroke="rgba(51, 56, 194, 0.58)" stroke-width="2"></path><path d="M485.55 588.82C626.74 546.29 658.16 153.94 873.21 144.3 1088.25 134.66 1067.03 214.3 1260.86 214.3 1454.69 214.3 1550.04 144.58 1648.52 144.3" stroke="rgba(51, 56, 194, 0.58)" stroke-width="2"></path><path d="M397.23 586.01C512.93 575.18 586.72 333.76 786.86 332.53 987 331.3 981.67 402.53 1176.49 402.53 1371.3 402.53 1467.15 332.81 1566.12 332.53" stroke="rgba(51, 56, 194, 0.58)" stroke-width="2"></path><path d="M575.13 605.22C750.61 551.92 798.53 57.47 1055.99 51.2 1313.46 44.93 1408.11 232.86 1536.86 236" stroke="rgba(51, 56, 194, 0.58)" stroke-width="2"></path></g><defs><mask id="SvgjsMask1240"><rect width="1440" height="560" fill="#ffffff"></rect></mask><linearGradient x1="15.28%" y1="-39.29%" x2="84.72%" y2="139.29%" gradientUnits="userSpaceOnUse" id="SvgjsLinearGradient1241"><stop stop-color="#0e2a47" offset="0"></stop><stop stop-color="rgba(4, 32, 68, 1)" offset="1"></stop></linearGradient></defs></svg>